<svg width="716" height="410" viewBox="0 0 716 410" fill="none" xmlns="http://www.w3.org/2000/svg">
<rect width="716" height="410" fill="#F5F5F5"/>
<path d="M703.68 287.27L714.72 289.15" stroke="#263238" stroke-linecap="round" stroke-linejoin="round"/>
<path d="M147.29 302.38L484.43 249.89L696.64 286.07" stroke="#263238" stroke-linecap="round" stroke-linejoin="round"/>
<path d="M0.500072 325.24L132.63 304.66" stroke="#263238" stroke-linecap="round" stroke-linejoin="round"/>
<path d="M571.38 7.51001L367.48 32.05L367.88 286.49L573.37 319.25L663.17 300.64L663.57 18.71L571.38 7.51001Z" fill="#DBDBDB" stroke="#263238" stroke-linecap="round" stroke-linejoin="round"/>
<path d="M653.9 292.77L588.56 282.9" stroke="#263238" stroke-linecap="round" stroke-linejoin="round"/>
<path d="M614.54 128.9C630.799 128.9 643.98 110.803 643.98 88.48C643.98 66.1567 630.799 48.06 614.54 48.06C598.281 48.06 585.1 66.1567 585.1 88.48C585.1 110.803 598.281 128.9 614.54 128.9Z" fill="white"/>
<path d="M614.54 125.09C629.264 125.09 641.2 108.699 641.2 88.48C641.2 68.2609 629.264 51.87 614.54 51.87C599.816 51.87 587.88 68.2609 587.88 88.48C587.88 108.699 599.816 125.09 614.54 125.09Z" fill="#164E87"/>
<path d="M614.54 101.91C619.941 101.91 624.32 95.8972 624.32 88.48C624.32 81.0628 619.941 75.05 614.54 75.05C609.139 75.05 604.76 81.0628 604.76 88.48C604.76 95.8972 609.139 101.91 614.54 101.91Z" fill="#263238" stroke="#263238" stroke-linecap="round" stroke-linejoin="round"/>
<path d="M551.95 84.51L427.49 87.9V199.08L554.78 212.94V87.06L551.95 84.51Z" fill="#263238" stroke="#263238" stroke-linecap="round" stroke-linejoin="round"/>
<path d="M417.66 174.68C433.919 174.68 447.1 156.583 447.1 134.26C447.1 111.937 433.919 93.84 417.66 93.84C401.401 93.84 388.22 111.937 388.22 134.26C388.22 156.583 401.401 174.68 417.66 174.68Z" fill="white"/>
<path d="M417.66 170.87C432.384 170.87 444.32 154.479 444.32 134.26C444.32 114.041 432.384 97.65 417.66 97.65C402.936 97.65 391 114.041 391 134.26C391 154.479 402.936 170.87 417.66 170.87Z" fill="#164E87"/>
<path d="M417.66 147.69C423.061 147.69 427.44 141.677 427.44 134.26C427.44 126.843 423.061 120.83 417.66 120.83C412.259 120.83 407.88 126.843 407.88 134.26C407.88 141.677 412.259 147.69 417.66 147.69Z" fill="#263238" stroke="#263238" stroke-linecap="round" stroke-linejoin="round"/>
<path d="M614.54 211.06C630.799 211.06 643.98 192.963 643.98 170.64C643.98 148.317 630.799 130.22 614.54 130.22C598.281 130.22 585.1 148.317 585.1 170.64C585.1 192.963 598.281 211.06 614.54 211.06Z" fill="white"/>
<path d="M614.54 207.25C629.264 207.25 641.2 190.859 641.2 170.64C641.2 150.421 629.264 134.03 614.54 134.03C599.816 134.03 587.88 150.421 587.88 170.64C587.88 190.859 599.816 207.25 614.54 207.25Z" fill="#164E87"/>
<path d="M614.54 184.07C619.941 184.07 624.32 178.057 624.32 170.64C624.32 163.223 619.941 157.21 614.54 157.21C609.139 157.21 604.76 163.223 604.76 170.64C604.76 178.057 609.139 184.07 614.54 184.07Z" fill="#263238" stroke="#263238" stroke-linecap="round" stroke-linejoin="round"/>
<path d="M614.54 293.23C630.799 293.23 643.98 275.133 643.98 252.81C643.98 230.487 630.799 212.39 614.54 212.39C598.281 212.39 585.1 230.487 585.1 252.81C585.1 275.133 598.281 293.23 614.54 293.23Z" fill="white"/>
<path d="M614.54 289.42C629.264 289.42 641.2 273.029 641.2 252.81C641.2 232.591 629.264 216.2 614.54 216.2C599.816 216.2 587.88 232.591 587.88 252.81C587.88 273.029 599.816 289.42 614.54 289.42Z" fill="#164E87"/>
<path d="M614.54 266.24C619.941 266.24 624.32 260.227 624.32 252.81C624.32 245.393 619.941 239.38 614.54 239.38C609.139 239.38 604.76 245.393 604.76 252.81C604.76 260.227 609.139 266.24 614.54 266.24Z" fill="#263238" stroke="#263238" stroke-linecap="round" stroke-linejoin="round"/>
<path d="M508.1 128.21C507.555 128.21 507.018 128.084 506.53 127.84C501.71 125.43 494.53 118.07 489.53 110.34C484.69 102.92 479.68 92.04 483.31 82.42C485.08 77.73 492.18 69.82 533.24 55.19C555.24 47.36 576.82 41.28 577.03 41.19C577.484 41.0402 577.964 40.9839 578.441 41.0247C578.917 41.0655 579.381 41.2025 579.803 41.4273C580.225 41.6522 580.598 41.9603 580.897 42.333C581.197 42.7057 581.418 43.1353 581.547 43.5959C581.677 44.0564 581.711 44.5384 581.649 45.0127C581.587 45.4869 581.429 45.9437 581.185 46.3553C580.941 46.7669 580.617 47.1248 580.231 47.4075C579.845 47.6902 579.406 47.8918 578.94 48C544.07 57.78 493.39 75.69 489.94 84.88C487.21 92.1 492.23 101.5 495.46 106.45C500.68 114.45 507.05 120.16 509.71 121.45C510.424 121.805 510.996 122.392 511.334 123.114C511.672 123.836 511.756 124.651 511.571 125.426C511.387 126.202 510.945 126.892 510.319 127.385C509.692 127.878 508.917 128.144 508.12 128.14L508.1 128.21Z" fill="white" stroke="#263238" stroke-linecap="round" stroke-linejoin="round"/>
<path d="M505.56 149.15C504.847 149.156 504.149 148.943 503.56 148.54C493.56 141.76 489.76 127.59 492.41 106.42C493.62 96.69 498.19 87.89 506.41 79.53C517.41 68.3 535.23 57.74 559.41 48.13C613.41 26.71 638.74 33.85 639.8 34.13C640.685 34.4057 641.427 35.0187 641.864 35.8365C642.301 36.6543 642.399 37.6112 642.136 38.5005C641.873 39.3897 641.271 40.1399 640.46 40.5889C639.648 41.0379 638.693 41.1497 637.8 40.9C637.46 40.81 613.23 34.34 562.03 54.66C522.38 70.39 501.91 87.6 499.45 107.26C497.16 125.57 499.88 137.48 507.54 142.64C508.168 143.066 508.642 143.682 508.894 144.398C509.145 145.113 509.16 145.891 508.936 146.616C508.712 147.34 508.261 147.974 507.649 148.423C507.038 148.872 506.299 149.113 505.54 149.11L505.56 149.15Z" fill="white" stroke="#263238" stroke-linecap="round" stroke-linejoin="round"/>
<path d="M501.58 179.07V185.2H523.81L526.88 181.37H536.46V101.27L526.88 99.35L522.28 95.14H504.65L501.58 104.34V179.07Z" fill="white" stroke="#263238" stroke-linecap="round" stroke-linejoin="round"/>
<path d="M517.29 104.33H501.58V179.06H517.29V104.33Z" fill="#164E87" stroke="white" stroke-linecap="round" stroke-linejoin="round"/>
<path d="M563.67 141.51L527.26 138.83V172.93L562.13 177.92L563.67 141.51Z" fill="white" stroke="#263238" stroke-linecap="round" stroke-linejoin="round"/>
<path d="M527.67 142.98L563.23 146.01" stroke="#263238" stroke-linecap="round" stroke-linejoin="round"/>
<path d="M527.29 148.84L563.04 152.82" stroke="#263238" stroke-linecap="round" stroke-linejoin="round"/>
<path d="M527.48 154.52L562.67 158.68" stroke="#263238" stroke-linecap="round" stroke-linejoin="round"/>
<path d="M527.29 160.19L562.67 164.73" stroke="#263238" stroke-linecap="round" stroke-linejoin="round"/>
<path d="M526.91 165.11L562.1 170.03" stroke="#263238" stroke-linecap="round" stroke-linejoin="round"/>
<path d="M527.1 169.65L561.91 175.14" stroke="#263238" stroke-linecap="round" stroke-linejoin="round"/>
<path d="M527.26 138.83V118.2L529.56 119.52V138.82L527.26 138.83Z" fill="#263238" stroke="#263238" stroke-linecap="round" stroke-linejoin="round"/>
<path d="M387.3 188.33V272.34L393.11 272.95V189.25L387.3 188.33Z" fill="#263238" stroke="#263238" stroke-linecap="round" stroke-linejoin="round"/>
<path d="M393.11 189.25L461.68 185.71V195.5L564.23 206.83V242.95L545.87 248.16L460.76 237.14V258.56L560.56 273.26V301.11L393.11 272.95V189.25Z" fill="#ABABAB" stroke="#263238" stroke-linecap="round" stroke-linejoin="round"/>
<path d="M461.68 195.5L392.8 200.27L527.8 210.2L564.23 206.83L461.68 195.5Z" fill="#ABABAB" stroke="#263238" stroke-linecap="round" stroke-linejoin="round"/>
<path d="M527.8 210.2V245.4L545.87 248.16L564.23 242.95V206.83L527.8 210.2Z" fill="#263238" stroke="#263238" stroke-linecap="round" stroke-linejoin="round"/>
<path d="M392.8 200.27V230.86L460.76 237.14L527.8 245.4V210.2L392.8 200.27Z" fill="#263238" stroke="#263238" stroke-linecap="round" stroke-linejoin="round"/>
<path d="M421.36 232.41L429.01 218.08L483.95 223.57L487.77 227.63" stroke="white" stroke-linecap="round" stroke-linejoin="round"/>
<path d="M494.74 213.9C494.74 213.9 487.74 217.57 489.23 231.66C490.72 245.75 504.54 263.8 514.95 270.23C525.36 276.66 549.84 280.33 553.52 280.02C557.2 279.71 559.33 279.41 559.33 279.41V265.3C553.295 266.739 547.006 266.739 540.97 265.3C531.48 262.85 513.11 236.83 510.97 231.3C508.83 225.77 513.72 219.97 513.72 219.97V215.4L494.74 213.9Z" fill="white" stroke="#263238" stroke-linecap="round" stroke-linejoin="round"/>
<path d="M503.93 215.1C503.93 215.1 497.8 218.16 500.56 231.63C503.32 245.1 514.95 261.32 528.11 269.89C541.27 278.46 553.21 276.63 553.21 276.63" stroke="#263238" stroke-linecap="round" stroke-linejoin="round"/>
<path d="M513.72 215.4C511.765 217.163 510.227 219.34 509.219 221.772C508.21 224.204 507.756 226.831 507.89 229.46C508.38 238.39 522.28 253.03 528.36 259.46" stroke="#263238" stroke-linecap="round" stroke-linejoin="round"/>
<path d="M506.15 217.67C506.15 217.67 503.15 223.13 504.91 232.67C506.67 242.21 522.4 260.96 532.83 267.67" stroke="#263238" stroke-linecap="round" stroke-linejoin="round"/>
<path d="M498.58 214.07C498.58 214.07 494.98 215.93 495.35 226.35C495.72 236.77 504.04 253.78 514.96 264.7" stroke="#263238" stroke-linecap="round" stroke-linejoin="round"/>
<path d="M491.88 228.34C491.88 228.34 490.67 238.9 502.43 255.27" stroke="#263238" stroke-linecap="round" stroke-linejoin="round"/>
<path d="M537.67 268.67C544.457 270.136 551.337 271.139 558.26 271.67" stroke="#263238" stroke-linecap="round" stroke-linejoin="round"/>
<path d="M387.3 188.33L434.65 184.97L461.68 185.71L393.11 189.25L387.3 188.33Z" fill="white" stroke="#263238" stroke-linecap="round" stroke-linejoin="round"/>
<path d="M393.53 249.93L445.58 242.98V256.29L393.33 267.01L393.11 272.95L460.76 258.56V237.14L441.21 235.43L393.13 238.61L393.53 249.93Z" fill="#263238" stroke="#263238" stroke-linecap="round" stroke-linejoin="round"/>
<path d="M397 277.8V290.22C397 293.38 416.84 295.95 441.31 295.95C465.78 295.95 485.67 293.38 485.67 290.22V277.8H397Z" fill="white"/>
<path d="M441.31 283.53C465.782 283.53 485.62 280.965 485.62 277.8C485.62 274.635 465.782 272.07 441.31 272.07C416.838 272.07 397 274.635 397 277.8C397 280.965 416.838 283.53 441.31 283.53Z" fill="#164E87"/>
<path d="M449.31 276.72C449.31 277.72 444.07 278.51 437.61 278.51C431.15 278.51 425.9 277.71 425.9 276.72C425.9 275.73 431.14 274.93 437.61 274.93C444.08 274.93 449.31 275.73 449.31 276.72Z" fill="#263238" stroke="#263238" stroke-linecap="round" stroke-linejoin="round"/>
<path d="M491.79 285.12L491.43 297.54C491.34 300.71 511.1 307.67 535.56 308.37C560.02 309.07 579.93 307.08 580.02 303.91L580.37 287.67L491.79 285.12Z" fill="white"/>
<path d="M580.37 287.67C580.28 290.84 560.37 292.83 535.92 292.13C511.47 291.43 491.7 288.29 491.79 285.13C491.88 281.97 511.79 279.97 536.25 280.68C560.71 281.39 580.46 284.51 580.37 287.67Z" fill="#164E87"/>
<path d="M544.11 285.55C544.11 286.55 538.82 287.19 532.36 287.01C525.9 286.83 520.67 285.9 520.67 284.9C520.67 283.9 525.96 283.26 532.42 283.45C538.88 283.64 544.14 284.56 544.11 285.55Z" fill="#263238" stroke="#263238" stroke-linecap="round" stroke-linejoin="round"/>
<path d="M392.43 30.32V44.13L445.12 50.56L609.61 36.42V15.22L571.38 7.51001L392.43 30.32Z" fill="#263238"/>
<path d="M392.43 44.13L553.39 26.78L609.61 36.42L445.12 50.56L392.43 44.13Z" fill="white"/>
<path d="M491.1 124.4H477.6C473.673 124.4 470.49 127.583 470.49 131.51V152.93C470.49 156.857 473.673 160.04 477.6 160.04H491.1C495.027 160.04 498.21 156.857 498.21 152.93V131.51C498.21 127.583 495.027 124.4 491.1 124.4Z" fill="white" stroke="#263238" stroke-linecap="round" stroke-linejoin="round"/>
<path d="M488.52 130.37H480.18C477.397 130.37 475.14 132.626 475.14 135.41V149.01C475.14 151.794 477.397 154.05 480.18 154.05H488.52C491.304 154.05 493.56 151.794 493.56 149.01V135.41C493.56 132.626 491.304 130.37 488.52 130.37Z" fill="#164E87"/>
<path d="M571.75 0.500004L572.96 324.9L665.96 304.68L666.77 15.06L571.75 0.500004ZM660.34 296.6L583.89 311.6L584.67 13.9L660.32 26.44L660.34 296.6Z" fill="#263238" stroke="#263238" stroke-linecap="round" stroke-linejoin="round"/>
<path d="M571.75 0.500004L362.22 28.01V290.13L572.96 324.9L571.75 0.500004ZM372.74 282.9L371.12 35.34L557.59 15.07L558.81 313.99L372.74 282.9Z" fill="#707070" stroke="#263238" stroke-linecap="round" stroke-linejoin="round"/>
<path d="M446.61 54.93V81.72" stroke="#263238" stroke-linecap="round" stroke-linejoin="round"/>
<path d="M239.5 363.9C239.5 363.9 292.67 377.83 297.55 377.5C302.43 377.17 519.38 331.13 521 330.15C522.62 329.17 525.22 323.99 525.22 323.99L517.43 321.07C517.43 321.07 446.08 307.13 442.52 307.78C438.96 308.43 208.04 344.1 205.77 346.37C203.5 348.64 200.26 350.91 201.23 351.88C202.2 352.85 239.5 363.9 239.5 363.9Z" fill="#263238" stroke="#263238" stroke-linecap="round" stroke-linejoin="round"/>
<path d="M214.85 349.94L291 367.76L516.72 321.99" stroke="#B8B8B8" stroke-linecap="round" stroke-linejoin="round"/>
<path d="M295.13 369.69L298.44 371.89L522.01 325.3" stroke="#B8B8B8" stroke-linecap="round" stroke-linejoin="round"/>
<path d="M228.58 350.11L231.39 347.56L287.98 361.33L288.24 365.41" stroke="#B8B8B8" stroke-linecap="round" stroke-linejoin="round"/>
<path d="M287.98 361.33L298.14 359.82L301.3 363.7" stroke="#B8B8B8" stroke-linecap="round" stroke-linejoin="round"/>
<path d="M302.27 363.09L303.24 359.69L311.85 357.63L314.76 360.91L315.97 357.27L336.59 353.15L339.63 356.78" stroke="#B8B8B8" stroke-linecap="round" stroke-linejoin="round"/>
<path d="M342.78 355.33L344.36 352.05L351.88 350.11L355.03 353.51" stroke="#B8B8B8" stroke-linecap="round" stroke-linejoin="round"/>
<path d="M356.24 353.02L357.21 349.26L363.16 348.05L366.31 350.35L368.13 347.08L374.8 345.99L377.11 347.93" stroke="#B8B8B8" stroke-linecap="round" stroke-linejoin="round"/>
<path d="M231.39 347.56L240.53 346.23L243.32 347.2L244.41 344.9L246.84 344.65H251.08L254.24 343.93L256.78 342.35H263.21L268.43 342.23L269.52 340.89L277.16 339.8L282.25 340.65L284.8 337.5L292.44 337.13L295.11 337.26L296.93 335.92L316.7 332.89L320.7 333.37L322.77 331.07L340.72 328.89L347.87 329.98L349.33 331.8" stroke="#B8B8B8" stroke-linecap="round" stroke-linejoin="round"/>
<path d="M335.26 335.19L347.51 332.65" stroke="#B8B8B8" stroke-linecap="round" stroke-linejoin="round"/>
<path d="M350.42 332.53L367.03 336.8L355.52 339.56L339.02 336.16" stroke="#B8B8B8" stroke-linecap="round" stroke-linejoin="round"/>
<path d="M355.51 339.56V345.5" stroke="#B8B8B8" stroke-linecap="round" stroke-linejoin="round"/>
<path d="M374.8 345.99L364.25 343.56L357.7 344.29L356.85 346.23" stroke="#B8B8B8" stroke-linecap="round" stroke-linejoin="round"/>
<path d="M363.16 348.05L351.39 345.5L347.27 347.2L346.66 348.17" stroke="#B8B8B8" stroke-linecap="round" stroke-linejoin="round"/>
<path d="M357.21 349.26L350.66 347.81" stroke="#B8B8B8" stroke-linecap="round" stroke-linejoin="round"/>
<path d="M368.13 347.08L360.25 345.62" stroke="#B8B8B8" stroke-linecap="round" stroke-linejoin="round"/>
<path d="M344.36 352.05L334.29 348.66L342.54 347.44L350.91 349.26" stroke="#B8B8B8" stroke-linecap="round" stroke-linejoin="round"/>
<path d="M333.44 343.56L341.32 345.99L349.45 344.17L341.93 341.74L333.44 343.56Z" stroke="#B8B8B8" stroke-linecap="round" stroke-linejoin="round"/>
<path d="M333.44 343.56L330.65 346.59L334.05 347.81" stroke="#B8B8B8" stroke-linecap="round" stroke-linejoin="round"/>
<path d="M349.45 344.17L351.39 345.5" stroke="#B8B8B8" stroke-linecap="round" stroke-linejoin="round"/>
<path d="M336.59 353.14L285.89 341.5" stroke="#B8B8B8" stroke-linecap="round" stroke-linejoin="round"/>
<path d="M245.87 347.93L295.96 359.45" stroke="#B8B8B8" stroke-linecap="round" stroke-linejoin="round"/>
<path d="M247.44 346.11L301.66 358.85" stroke="#B8B8B8" stroke-linecap="round" stroke-linejoin="round"/>
<path d="M255.33 345.02L309.91 356.9" stroke="#B8B8B8" stroke-linecap="round" stroke-linejoin="round"/>
<path d="M268.19 343.08L311.73 352.78L321.67 350.84" stroke="#B8B8B8" stroke-linecap="round" stroke-linejoin="round"/>
<path d="M358.7 344.28L360.77 339.84L386.35 334.74L394.09 336.63L495.64 318.33L505.29 319.99L508.73 323.21" stroke="#B8B8B8" stroke-linecap="round" stroke-linejoin="round"/>
<path d="M505.29 319.99L405.09 340.3L406.2 343.52" stroke="#B8B8B8" stroke-linecap="round" stroke-linejoin="round"/>
<path d="M410.3 333.86L419.62 336.86L422.17 339.52" stroke="#B8B8B8" stroke-linecap="round" stroke-linejoin="round"/>
<path d="M423.84 331.2L434.49 334.42L436.49 336.75" stroke="#B8B8B8" stroke-linecap="round" stroke-linejoin="round"/>
<path d="M477.88 321.77L486.87 323.88L488.98 325.65" stroke="#B8B8B8" stroke-linecap="round" stroke-linejoin="round"/>
<path d="M489.53 319.77L496.97 321.99L498.41 323.88" stroke="#B8B8B8" stroke-linecap="round" stroke-linejoin="round"/>
<path d="M371.24 344.18L373.46 341.74L383 344.52L401.2 341.08L391.99 338.08" stroke="#B8B8B8" stroke-linecap="round" stroke-linejoin="round"/>
<path d="M401.2 341.08L402.64 344.18" stroke="#B8B8B8" stroke-linecap="round" stroke-linejoin="round"/>
<path d="M405.09 340.3L397.43 337.75" stroke="#B8B8B8" stroke-linecap="round" stroke-linejoin="round"/>
<path d="M373.46 341.74L389.55 338.64" stroke="#B8B8B8" stroke-linecap="round" stroke-linejoin="round"/>
<path d="M361.59 340.41L367.47 342.19" stroke="#B8B8B8" stroke-linecap="round" stroke-linejoin="round"/>
<path d="M266.75 347.17L268.16 345.29L272.87 344.23" stroke="#B8B8B8" stroke-linecap="round" stroke-linejoin="round"/>
<path d="M278.3 350.12L279.47 348.23L283.72 346.94" stroke="#B8B8B8" stroke-linecap="round" stroke-linejoin="round"/>
<path d="M291.49 352.12L292.67 350.94L298.09 350" stroke="#B8B8B8" stroke-linecap="round" stroke-linejoin="round"/>
<path d="M274.41 357.54L279.12 356.13" stroke="#B8B8B8" stroke-linecap="round" stroke-linejoin="round"/>
<path d="M265.21 355.19L268.4 354.01" stroke="#B8B8B8" stroke-linecap="round" stroke-linejoin="round"/>
<path d="M242.12 349.29L247.65 348.82" stroke="#B8B8B8" stroke-linecap="round" stroke-linejoin="round"/>
<path d="M250.72 351.42L256.49 350.71" stroke="#B8B8B8" stroke-linecap="round" stroke-linejoin="round"/>
<path d="M296.33 343.87L299.04 341.52L305.4 343.17V344.58" stroke="#B8B8B8" stroke-linecap="round" stroke-linejoin="round"/>
<path d="M306.34 343.28L313.18 341.75L315.65 343.52L317.18 340.46L324.37 338.92L327.2 341.63L328.85 338.57L336.16 337.39L338.99 339.98" stroke="#B8B8B8" stroke-linecap="round" stroke-linejoin="round"/>
<path d="M301.51 340.69L328.62 335.51L333.68 336.57" stroke="#B8B8B8" stroke-linecap="round" stroke-linejoin="round"/>
<path d="M313.18 341.75L308.11 339.75" stroke="#B8B8B8" stroke-linecap="round" stroke-linejoin="round"/>
<path d="M317.18 340.46L312.47 339.16" stroke="#B8B8B8" stroke-linecap="round" stroke-linejoin="round"/>
<path d="M328.85 338.57L322.61 337.27" stroke="#B8B8B8" stroke-linecap="round" stroke-linejoin="round"/>
<path d="M295.11 337.26L305.16 339.87" stroke="#B8B8B8" stroke-linecap="round" stroke-linejoin="round"/>
<path d="M297.74 336.21L309.17 339.28" stroke="#B8B8B8" stroke-linecap="round" stroke-linejoin="round"/>
<path d="M306.7 335.03L316.48 337.98" stroke="#B8B8B8" stroke-linecap="round" stroke-linejoin="round"/>
<path d="M310.35 334.21L319.78 337.63L324.37 338.92" stroke="#B8B8B8" stroke-linecap="round" stroke-linejoin="round"/>
<path d="M321.78 333.86L326.26 335.15" stroke="#B8B8B8" stroke-linecap="round" stroke-linejoin="round"/>
<path d="M322.77 331.07L332.62 333.15L333.33 335.62" stroke="#B8B8B8" stroke-linecap="round" stroke-linejoin="round"/>
<path d="M343.35 327.96L451.06 310.4" stroke="#B8B8B8" stroke-linecap="round" stroke-linejoin="round"/>
<path d="M352.81 331.2L462.57 312.65" stroke="#B8B8B8" stroke-linecap="round" stroke-linejoin="round"/>
<path d="M361.22 334.18L474.47 314.4" stroke="#B8B8B8" stroke-linecap="round" stroke-linejoin="round"/>
<path d="M389.22 333.83L486.2 316.5" stroke="#B8B8B8" stroke-linecap="round" stroke-linejoin="round"/>
<path d="M435.23 312.83L479.41 320.9" stroke="#B8B8B8" stroke-linecap="round" stroke-linejoin="round"/>
<path d="M446.1 311.31L485.84 319.38" stroke="#B8B8B8" stroke-linecap="round" stroke-linejoin="round"/>
<path d="M462.93 324.29L428.8 314.59" stroke="#B8B8B8" stroke-linecap="round" stroke-linejoin="round"/>
<path d="M451.83 326.39L420.86 316.69" stroke="#B8B8B8" stroke-linecap="round" stroke-linejoin="round"/>
<path d="M434.65 329.66L404.84 318.68" stroke="#B8B8B8" stroke-linecap="round" stroke-linejoin="round"/>
<path d="M425.18 331.42L396.19 320.31" stroke="#B8B8B8" stroke-linecap="round" stroke-linejoin="round"/>
<path d="M414.43 333.4L386.26 321.83" stroke="#B8B8B8" stroke-linecap="round" stroke-linejoin="round"/>
<path d="M402.51 335.27L375.74 323.35" stroke="#B8B8B8" stroke-linecap="round" stroke-linejoin="round"/>
<path d="M387.08 335.39L364.87 325.11" stroke="#B8B8B8" stroke-linecap="round" stroke-linejoin="round"/>
<path d="M376.68 336.68L354.82 326.62" stroke="#B8B8B8" stroke-linecap="round" stroke-linejoin="round"/>
<path d="M271.96 338.43L274.53 335.51" stroke="#B8B8B8" stroke-linecap="round" stroke-linejoin="round"/>
<path d="M283.53 333.99L288.55 335.86" stroke="#B8B8B8" stroke-linecap="round" stroke-linejoin="round"/>
<path d="M294.28 332.47L299.66 334.22" stroke="#B8B8B8" stroke-linecap="round" stroke-linejoin="round"/>
<path d="M307.14 330.01L313.91 332.35" stroke="#B8B8B8" stroke-linecap="round" stroke-linejoin="round"/>
<path d="M319.76 327.91L327.12 329.66" stroke="#B8B8B8" stroke-linecap="round" stroke-linejoin="round"/>
<path d="M330.04 326.16L337.52 328.49" stroke="#B8B8B8" stroke-linecap="round" stroke-linejoin="round"/>
<path d="M341.26 324.29L347.11 326.04" stroke="#B8B8B8" stroke-linecap="round" stroke-linejoin="round"/>
<path d="M366.98 320.31L371.88 321.83" stroke="#B8B8B8" stroke-linecap="round" stroke-linejoin="round"/>
<path d="M377.26 318.56L382.87 319.96" stroke="#B8B8B8" stroke-linecap="round" stroke-linejoin="round"/>
<path d="M386.38 316.92L391.99 317.98" stroke="#B8B8B8" stroke-linecap="round" stroke-linejoin="round"/>
<path d="M399.12 315.17L405.08 316.92" stroke="#B8B8B8" stroke-linecap="round" stroke-linejoin="round"/>
<path d="M410.57 313.42L417.35 314.82" stroke="#B8B8B8" stroke-linecap="round" stroke-linejoin="round"/>
<path d="M419.1 311.78L425.88 313.42" stroke="#B8B8B8" stroke-linecap="round" stroke-linejoin="round"/>
<path d="M428.69 310.38L434.41 311.9" stroke="#B8B8B8" stroke-linecap="round" stroke-linejoin="round"/>
<path d="M245.67 369.07C245.67 369.07 233.98 353.83 214.85 349.9C195.72 345.97 185.34 352.82 175.93 358.01C166.52 363.2 157.45 367.41 158.42 371.3C158.941 373.173 159.843 374.918 161.07 376.425C162.297 377.933 163.822 379.17 165.55 380.06C168.47 381.36 196.69 391.41 209.99 392.71C223.29 394.01 239.17 390.44 244.04 385.57C248.91 380.7 245.67 369.07 245.67 369.07Z" fill="#A3A3A3" stroke="#263238" stroke-linecap="round" stroke-linejoin="round"/>
<path d="M242.72 365.78C238.13 361.07 228.35 352.68 214.85 349.94C195.72 346.05 185.34 352.86 175.93 358.05C174.14 359.05 172.37 359.98 170.67 360.9C172.67 360.43 186.51 357.36 193.12 360.96C200.26 364.86 213.23 370.37 227.17 370.37C235.1 370.37 239.98 368.07 242.72 365.78Z" fill="#707070" stroke="#263238" stroke-linecap="round" stroke-linejoin="round"/>
<path d="M246.58 379.54C240.276 383.398 232.964 385.285 225.58 384.96C207.1 384.31 199.64 372.31 187.96 365.83C176.28 359.35 158.45 371.34 158.45 371.34C158.971 373.213 159.873 374.958 161.1 376.465C162.327 377.973 163.852 379.21 165.58 380.1C168.5 381.4 196.72 391.45 210.02 392.75C223.32 394.05 239.2 390.48 244.07 385.61C245.556 383.92 246.439 381.785 246.58 379.54Z" fill="#263238" stroke="#263238" stroke-linecap="round" stroke-linejoin="round"/>
<path d="M54.3801 14.53L49.4701 17.49L76.5601 277.7L81.0601 275.81L54.3801 14.53Z" fill="#A3A3A3" stroke="#263238" stroke-linecap="round" stroke-linejoin="round"/>
<path d="M209.14 261.9L187.94 323.44L237 312.99C237 312.99 228.29 306.9 229.46 297.61C230.63 288.32 242.52 259.87 242.52 259.87L209.14 261.9Z" fill="#A3A3A3" stroke="#263238" stroke-linecap="round" stroke-linejoin="round"/>
<path d="M229.46 297.57C230.62 288.28 242.52 259.83 242.52 259.83L219.03 261.26C217.15 266.68 206.46 296.26 205.94 304.54C205.724 307.159 206.174 309.79 207.247 312.189C208.321 314.588 209.983 316.676 212.08 318.26L237 312.95C237 312.95 228.29 306.9 229.46 297.57Z" fill="#263238" stroke="#263238" stroke-linecap="round" stroke-linejoin="round"/>
<path d="M54.3801 14.53L81.0601 275.81L384.13 247.62L357.45 49.77L54.3801 14.53Z" fill="#263238" stroke="#263238" stroke-linecap="round" stroke-linejoin="round"/>
<path d="M64.9501 25.1L90.6301 264.23L374.57 239.57L351.92 59.33L64.9501 25.1Z" fill="#164E87" stroke="#263238" stroke-linecap="round" stroke-linejoin="round"/>
<path d="M248.664 139.839C260.012 133.012 262.639 116.551 254.531 103.073C246.423 89.595 230.65 84.2031 219.302 91.0301C207.953 97.8571 205.326 114.318 213.434 127.796C221.542 141.274 237.315 146.666 248.664 139.839Z" fill="white" stroke="#263238" stroke-linecap="round" stroke-linejoin="round"/>
<path d="M239.252 111.79C242.741 109.244 242.951 103.592 239.721 99.1666C236.492 94.7411 231.045 93.2173 227.557 95.7631C224.068 98.309 223.858 103.961 227.087 108.386C230.317 112.812 235.763 114.335 239.252 111.79Z" fill="white" stroke="#263238" stroke-linecap="round" stroke-linejoin="round"/>
<path d="M258.54 125.74C251.19 117.38 240.91 112.35 231.54 113.52C222.17 114.69 216.45 121.52 215.4 130.79C222.21 139.79 233.07 144.64 243.01 142.17C251.12 140.16 256.67 133.8 258.54 125.74Z" fill="white" stroke="#263238" stroke-linecap="round" stroke-linejoin="round"/>
<path d="M283.89 169.97H198.32L195.97 155.07H281.53L283.89 169.97Z" fill="white" stroke="#263238" stroke-linecap="round" stroke-linejoin="round"/>
<path d="M76.5601 277.7L382.72 249.22L384.13 247.62L81.0601 275.81L76.5601 277.7Z" fill="white" stroke="#263238" stroke-linecap="round" stroke-linejoin="round"/>
<path d="M170.99 348.5C170.99 348.5 177.43 342.37 183.71 339.5C189.99 336.63 216.48 326.64 246.71 324.24C276.94 321.84 348.45 320.5 353.24 320.35C358.03 320.2 363.57 319.75 364.16 318.11C364.75 316.47 365.03 309.11 365.03 309.11L343.84 316.95L341.72 314.95C341.72 314.95 318.38 312.7 275.59 316.14C232.8 319.58 206.76 326.14 189.26 331.7C171.76 337.26 170.99 348.5 170.99 348.5Z" fill="#263238" stroke="#263238" stroke-linecap="round" stroke-linejoin="round"/>
<path d="M145.56 336.76L172.56 346.05C172.56 346.05 182.72 331.24 232.07 323.4C281.42 315.56 343.83 317.02 343.83 317.02L365.02 309.18C365.02 309.18 284.02 304.54 231.49 311.5C178.96 318.46 152.24 328.63 145.56 336.76Z" fill="#707070" stroke="#263238" stroke-linecap="round" stroke-linejoin="round"/>
<path d="M145.56 336.76C145.56 336.76 136.85 347.5 139.18 348.37C141.51 349.24 167.91 349.53 169.95 348.66C170.536 348.419 171.069 348.064 171.517 347.616C171.965 347.168 172.319 346.636 172.56 346.05L145.56 336.76Z" fill="#263238" stroke="#263238" stroke-linecap="round" stroke-linejoin="round"/>
<path d="M44.6701 348.9L49.9801 393.6C49.9801 401.85 63.8301 408.54 80.9101 408.54C97.9901 408.54 111.84 401.85 111.84 393.6L117.15 348.9H44.6701Z" fill="white" stroke="#263238" stroke-linecap="round" stroke-linejoin="round"/>
<path d="M80.9501 359.17C100.965 359.17 117.19 354.576 117.19 348.91C117.19 343.244 100.965 338.65 80.9501 338.65C60.9353 338.65 44.7101 343.244 44.7101 348.91C44.7101 354.576 60.9353 359.17 80.9501 359.17Z" fill="white" stroke="#263238" stroke-linecap="round" stroke-linejoin="round"/>
<path d="M80.9501 356.91C96.5466 356.91 109.19 353.328 109.19 348.91C109.19 344.492 96.5466 340.91 80.9501 340.91C65.3535 340.91 52.7101 344.492 52.7101 348.91C52.7101 353.328 65.3535 356.91 80.9501 356.91Z" fill="#263238"/>
<path d="M18.6701 248.65C22.0201 249.57 29.6701 248.28 29.6701 248.28C29.6701 248.28 27.2801 243.46 27.0901 243.18C24.8801 239.88 18.6801 234.81 14.4101 236.03C13.7061 236.253 13.0569 236.621 12.5044 237.111C11.952 237.601 11.5086 238.202 11.2032 238.874C10.8977 239.546 10.7369 240.275 10.7312 241.013C10.7255 241.752 10.875 242.483 11.1701 243.16C12.4101 246.07 15.8301 247.9 18.6701 248.65Z" fill="#263238"/>
<path d="M97.0201 239.02C97.0901 239.02 97.6801 233.69 97.6701 233.35C97.6701 229.35 95.2801 221.73 91.0401 220.35C90.3303 220.147 89.5857 220.095 88.8547 220.199C88.1237 220.303 87.4227 220.559 86.7974 220.951C86.172 221.344 85.6362 221.864 85.2249 222.477C84.8136 223.09 84.536 223.783 84.4101 224.51C83.7701 227.58 85.6401 230.97 87.5901 233.2C89.8801 235.9 97.0101 239.02 97.0201 239.02Z" fill="#263238"/>
<path d="M116 207.71C111.56 207.87 107.23 214.62 106.15 218.44C106.06 218.77 105.15 224.1 105.28 224.09H105.37C104.68 225.15 103.95 226.29 103.18 227.56C101.78 229.91 100.18 232.56 98.7001 235.56C97.0336 238.803 95.5611 242.142 94.2901 245.56C92.845 249.368 91.7407 253.297 90.9901 257.3C90.9901 257.35 90.9901 257.4 90.9901 257.45C90.8301 256.16 90.2501 252.56 90.1701 252.29C89.1001 248.47 84.7901 241.71 80.3501 241.54C79.6118 241.531 78.8799 241.678 78.202 241.97C77.5241 242.263 76.9154 242.695 76.4155 243.238C75.9156 243.781 75.5356 244.424 75.3004 245.124C75.0651 245.823 74.9798 246.565 75.0501 247.3C75.2501 250.44 77.9401 253.21 80.4101 254.84C83.2001 256.69 90.4101 257.84 90.9301 257.92C90.2655 262.012 89.8779 266.145 89.7701 270.29C89.6901 272.7 89.6801 275.13 89.7101 277.57C89.5301 276.46 89.3601 275.47 89.3301 275.33C88.2601 271.51 83.9401 264.76 79.5001 264.58C78.7617 264.572 78.03 264.72 77.3526 265.014C76.6751 265.308 76.0671 265.741 75.5681 266.285C75.0691 266.829 74.6903 267.473 74.4563 268.173C74.2223 268.873 74.1384 269.615 74.2101 270.35C74.4101 273.48 77.1001 276.25 79.5701 277.89C82.0401 279.53 88.1601 280.65 89.7701 280.89C89.7701 281.83 89.7701 282.77 89.8301 283.7C89.9401 288.19 90.0701 292.7 90.0701 297.07C90.0701 298.62 90.0101 300.15 89.9501 301.67C89.7901 300.67 89.6501 299.86 89.6201 299.73C88.5501 295.91 84.2401 289.15 79.7901 288.98C79.0522 288.974 78.3212 289.123 77.6445 289.417C76.9678 289.711 76.3604 290.145 75.8618 290.688C75.3631 291.232 74.9842 291.875 74.7496 292.575C74.5151 293.274 74.43 294.015 74.5001 294.75C74.7001 297.88 77.3901 300.65 79.8601 302.29C82.3301 303.93 87.8601 304.93 89.7801 305.29C89.6701 306.85 89.5801 308.42 89.4101 309.93C89.2701 310.93 89.2101 311.93 89.0101 312.98C88.8101 314.03 88.6701 314.98 88.5001 315.98C88.1001 317.89 87.7001 319.87 87.2701 321.72C86.9701 323.01 86.6701 324.24 86.3701 325.48C86.3701 323.93 86.3701 320.91 86.3701 320.66C85.8234 317.212 84.4014 313.962 82.2401 311.22C82.1899 310.834 82.1097 310.453 82.0001 310.08C81.8033 309.369 81.4593 308.707 80.9903 308.138C80.5212 307.569 79.9377 307.105 79.2776 306.776C78.6174 306.446 77.8955 306.26 77.1586 306.228C76.4216 306.196 75.6862 306.319 75.0001 306.59C70.9201 308.34 69.3001 316.19 69.6701 320.14C69.6701 320.37 70.2101 322.87 70.5601 324.45C70.2201 323.55 69.8901 322.68 69.5601 321.77C68.8401 319.95 68.0701 318.16 67.2501 316.23L65.9501 313.45C65.5301 312.52 64.9501 311.58 64.4901 310.63C63.3201 308.45 62.0201 306.3 60.6701 304.17C62.2601 303.54 67.8601 301.17 69.9401 299.07C72.0201 296.97 74.0501 293.67 73.5801 290.57C73.4948 289.837 73.2559 289.13 72.8789 288.495C72.502 287.861 71.9955 287.313 71.3926 286.887C70.7896 286.462 70.1037 286.168 69.3796 286.026C68.6554 285.883 67.9094 285.895 67.1901 286.06C62.8801 287.17 60.1001 294.68 59.8601 298.64C59.8601 298.89 60.0001 301.75 60.1101 303.32C59.2901 302.04 58.4701 300.77 57.6001 299.5C55.0701 295.85 52.4001 292.23 49.7601 288.61C48.9401 287.5 48.1501 286.39 47.3501 285.27C47.9201 285.05 54.6401 282.43 56.9701 280.04C59.0401 277.92 61.0801 274.64 60.6101 271.54C60.5218 270.807 60.2807 270.1 59.9024 269.466C59.5241 268.832 59.017 268.285 58.4139 267.859C57.8108 267.433 57.125 267.138 56.4009 266.993C55.6768 266.849 54.9305 266.858 54.2101 267.02C49.9101 268.13 47.1301 275.65 46.8901 279.61C46.8901 279.91 47.0901 284.03 47.2001 285.07C45.4401 282.62 43.7101 280.16 42.1001 277.67C39.9075 274.312 37.9366 270.815 36.2001 267.2C36.4601 267.1 43.4901 264.39 45.8801 261.95C47.9401 259.82 49.9901 256.55 49.5201 253.44C49.432 252.707 49.1909 252.001 48.8125 251.367C48.4341 250.733 47.9268 250.186 47.3234 249.761C46.7201 249.336 46.0341 249.042 45.31 248.899C44.5859 248.756 43.8398 248.766 43.1201 248.93C38.8201 250.04 36.0401 257.55 35.8001 261.52C35.8001 261.78 35.9501 264.91 36.0601 266.4L35.8201 266.47C34.1672 262.789 32.8486 258.967 31.8801 255.05C31.3201 252.9 30.8801 250.81 30.5401 248.77C31.9001 248.4 38.1001 246.65 40.5401 244.68C42.9801 242.71 45.2201 239.76 45.0901 236.68C45.0851 235.942 44.9247 235.213 44.6193 234.54C44.3139 233.868 43.8704 233.268 43.3177 232.778C42.7649 232.288 42.1152 231.921 41.411 231.699C40.7067 231.477 39.9636 231.406 39.2301 231.49C34.8301 232.12 31.2301 239.28 30.5701 243.2C30.5701 243.41 30.4001 245.61 30.3301 247.2C30.1801 246.28 30.0101 245.33 29.8901 244.44C29.4101 241.11 29.1801 238.04 29.0001 235.31C28.9101 233.76 28.8501 232.36 28.8201 231.04C29.9701 229.98 34.5301 225.66 35.7201 222.86C36.9101 220.06 37.6101 216.34 36.0501 213.62C35.7057 212.967 35.2278 212.394 34.6473 211.938C34.0669 211.482 33.3969 211.153 32.681 210.973C31.9651 210.792 31.2192 210.765 30.492 210.892C29.7648 211.019 29.0725 211.298 28.4601 211.71C24.8501 214.3 24.9601 222.31 26.1701 226.09C26.2701 226.42 28.4901 231.34 28.5501 231.29L28.6201 231.22C28.6201 232.49 28.6201 233.84 28.7101 235.33C28.8301 238.06 29.0001 241.15 29.4001 244.5C29.8024 248.115 30.4101 251.704 31.2201 255.25C32.1157 259.223 33.364 263.109 34.9501 266.86L35.0101 266.99C34.1601 265.99 31.7001 263.32 31.4801 263.14C28.4801 260.54 21.1601 257.29 17.3601 259.59C16.7393 259.99 16.2097 260.516 15.8058 261.135C15.4018 261.753 15.1326 262.449 15.0157 263.178C14.8987 263.908 14.9366 264.653 15.1269 265.367C15.3171 266.08 15.6556 266.746 16.1201 267.32C18.0201 269.83 21.7901 270.65 24.7501 270.65C28.1001 270.65 34.7001 267.65 35.2201 267.42C36.9268 271.197 38.8845 274.855 41.0801 278.37C42.3401 280.43 43.6801 282.46 45.0801 284.48C44.3201 283.65 43.6301 282.92 43.5201 282.83C40.5201 280.23 33.2001 276.97 29.4001 279.28C28.7793 279.68 28.2497 280.206 27.8458 280.825C27.4418 281.443 27.1726 282.139 27.0557 282.868C26.9387 283.598 26.9766 284.343 27.1669 285.057C27.3571 285.77 27.6956 286.436 28.1601 287.01C30.0501 289.51 33.8301 290.34 36.7901 290.34C39.7501 290.34 45.4801 287.9 46.9701 287.23C47.5101 288 48.0301 288.78 48.5701 289.55C51.1401 293.23 53.7201 296.89 56.1401 300.55C56.9901 301.85 57.7901 303.15 58.5901 304.46C57.9101 303.72 57.3301 303.11 57.2401 303.02C54.2401 300.42 46.9101 297.17 43.1101 299.47C42.4781 299.855 41.9343 300.368 41.5139 300.977C41.0935 301.586 40.8061 302.276 40.6702 303.004C40.5344 303.731 40.5532 304.479 40.7255 305.198C40.8978 305.918 41.2196 306.593 41.6701 307.18C43.5601 309.69 47.3301 310.51 50.3001 310.52C53.2701 310.53 58.4301 308.31 60.2101 307.52C60.9801 308.88 61.7701 310.24 62.4601 311.59C62.9101 312.52 63.4601 313.39 63.8101 314.35L65.0501 317.16C65.7801 318.98 66.5301 320.84 67.2001 322.63C67.6601 323.87 68.0901 325.06 68.5201 326.26C67.6801 324.96 66.0001 322.45 65.8301 322.26C63.2601 319.26 56.5101 314.91 52.4101 316.61C51.7354 316.912 51.132 317.353 50.6391 317.903C50.1462 318.454 49.7749 319.102 49.5494 319.806C49.3239 320.51 49.2493 321.254 49.3304 321.988C49.4115 322.723 49.6465 323.432 50.0201 324.07C51.5101 326.83 55.1101 328.22 58.0201 328.67C61.2501 329.16 67.9601 327.31 68.8001 327.07C69.5001 329.07 70.1701 330.99 70.8001 332.83C72.8801 339.13 74.3801 344.47 75.3801 348.24L78.3801 347.8C78.3508 347.718 78.3274 347.635 78.3101 347.55C77.2101 343.76 75.5701 338.36 73.3101 331.98C72.6101 329.98 71.8101 327.82 70.9701 325.63C72.9074 324.507 74.7773 323.272 76.5701 321.93C79.1801 324.04 85.3601 326.06 86.1601 326.31C85.6501 328.36 85.1601 330.31 84.6301 332.2C82.8901 338.61 81.1901 343.88 79.9501 347.58L83.2201 347.1C84.3401 343.45 85.7501 338.6 87.2201 332.87C87.7401 330.8 88.2201 328.57 88.7601 326.28C89.6201 326.33 96.5801 326.73 99.6401 325.56C102.4 324.49 105.64 322.37 106.5 319.36C106.729 318.658 106.808 317.916 106.732 317.182C106.656 316.448 106.426 315.738 106.057 315.098C105.688 314.459 105.189 313.904 104.592 313.47C103.994 313.036 103.312 312.733 102.59 312.58C98.2201 311.79 92.5401 317.44 90.6701 320.94C90.5601 321.15 89.6101 323.52 89.0301 325.03C89.2401 324.09 89.4401 323.18 89.6401 322.22C90.0401 320.31 90.3901 318.39 90.7701 316.33C90.9101 315.33 91.0601 314.33 91.2101 313.33C91.3601 312.33 91.4401 311.23 91.5601 310.17C91.7801 307.71 91.8801 305.17 91.9301 302.67C93.6101 303.02 99.5701 304.17 102.48 303.54C105.39 302.91 108.89 301.3 110.2 298.45C110.532 297.791 110.722 297.07 110.758 296.333C110.793 295.596 110.673 294.86 110.405 294.172C110.137 293.485 109.727 292.861 109.203 292.342C108.678 291.823 108.05 291.42 107.36 291.16C103.16 289.71 96.6901 294.45 94.3601 297.62C94.2101 297.82 92.7601 300.29 91.9901 301.62C91.9901 300.1 91.9901 298.62 91.9901 297.05C91.9001 292.61 91.6701 288.12 91.4601 283.63C91.3901 282.26 91.3401 280.89 91.2901 279.52C91.8801 279.65 98.9401 281.18 102.2 280.47C105.09 279.84 108.61 278.23 109.92 275.38C110.254 274.721 110.445 274 110.481 273.262C110.517 272.525 110.397 271.788 110.129 271.1C109.861 270.412 109.451 269.789 108.926 269.27C108.4 268.751 107.771 268.349 107.08 268.09C102.88 266.64 96.4101 271.37 94.0801 274.55C93.9001 274.79 91.8101 278.34 91.3301 279.27C91.2101 276.27 91.1201 273.27 91.1601 270.27C91.1807 266.256 91.4646 262.247 92.0101 258.27C92.2801 258.33 99.6401 259.95 103.01 259.27C105.9 258.64 109.42 257.03 110.74 254.18C111.072 253.521 111.262 252.799 111.296 252.061C111.331 251.324 111.21 250.587 110.941 249.899C110.672 249.212 110.261 248.588 109.736 248.07C109.21 247.551 108.581 247.149 107.89 246.89C103.69 245.44 97.2201 250.17 94.8401 253.35C94.6801 253.56 93.0901 256.26 92.3701 257.57L92.1301 257.49C92.7804 253.509 93.7844 249.593 95.1301 245.79C95.8501 243.69 96.6501 241.72 97.4701 239.79C98.8101 240.23 104.95 242.19 108.03 241.86C111.11 241.53 114.65 240.35 116.27 237.66C116.675 237.043 116.946 236.348 117.065 235.62C117.183 234.892 117.147 234.147 116.959 233.433C116.77 232.72 116.433 232.054 115.97 231.48C115.506 230.906 114.927 230.435 114.27 230.1C110.27 228.2 103.27 232.19 100.59 235.1C100.45 235.26 99.1201 237.03 98.1701 238.33C98.5601 237.48 98.9401 236.59 99.3301 235.78C100.76 232.78 102.27 230.05 103.62 227.68C104.4 226.33 105.13 225.13 105.83 224.02C107.37 223.77 113.56 222.68 116.1 221.02C118.64 219.36 121.27 216.63 121.47 213.5C121.547 212.748 121.461 211.988 121.218 211.273C120.975 210.557 120.58 209.902 120.061 209.352C119.542 208.803 118.91 208.372 118.21 208.088C117.509 207.805 116.755 207.676 116 207.71Z" fill="#263238"/>
</svg>
